<mxfile host="app.diagrams.net" agent="Mozilla/5.0 (X11; CrOS x86_64 14541.0.0) AppleWebKit/537.36 (KHTML, like Gecko) Chrome/127.0.0.0 Safari/537.36" version="24.7.7">
  <diagram name="Page-1" id="2pl7-6pOcGGoAZEEDgzF">
    <mxGraphModel dx="1031" dy="559" grid="1" gridSize="10" guides="1" tooltips="1" connect="1" arrows="1" fold="1" page="1" pageScale="1" pageWidth="850" pageHeight="1100" math="0" shadow="0">
      <root>
        <mxCell id="0" />
        <mxCell id="1" parent="0" />
        <mxCell id="PvK_FAnKZPMPO2Lp3wNm-3" value="" style="edgeStyle=orthogonalEdgeStyle;rounded=0;orthogonalLoop=1;jettySize=auto;html=1;" edge="1" parent="1" source="PvK_FAnKZPMPO2Lp3wNm-1" target="PvK_FAnKZPMPO2Lp3wNm-2">
          <mxGeometry relative="1" as="geometry" />
        </mxCell>
        <mxCell id="PvK_FAnKZPMPO2Lp3wNm-1" value="Begin" style="ellipse;whiteSpace=wrap;html=1;" vertex="1" parent="1">
          <mxGeometry x="365" y="50" width="120" height="80" as="geometry" />
        </mxCell>
        <mxCell id="PvK_FAnKZPMPO2Lp3wNm-5" value="" style="edgeStyle=orthogonalEdgeStyle;rounded=0;orthogonalLoop=1;jettySize=auto;html=1;" edge="1" parent="1" source="PvK_FAnKZPMPO2Lp3wNm-2" target="PvK_FAnKZPMPO2Lp3wNm-4">
          <mxGeometry relative="1" as="geometry" />
        </mxCell>
        <mxCell id="PvK_FAnKZPMPO2Lp3wNm-2" value="Say Hello" style="whiteSpace=wrap;html=1;" vertex="1" parent="1">
          <mxGeometry x="365" y="150" width="120" height="60" as="geometry" />
        </mxCell>
        <mxCell id="PvK_FAnKZPMPO2Lp3wNm-9" value="" style="edgeStyle=orthogonalEdgeStyle;rounded=0;orthogonalLoop=1;jettySize=auto;html=1;" edge="1" parent="1" source="PvK_FAnKZPMPO2Lp3wNm-4" target="PvK_FAnKZPMPO2Lp3wNm-8">
          <mxGeometry relative="1" as="geometry" />
        </mxCell>
        <mxCell id="PvK_FAnKZPMPO2Lp3wNm-4" value="Can I get a Cheeseburger" style="whiteSpace=wrap;html=1;" vertex="1" parent="1">
          <mxGeometry x="365" y="230" width="120" height="60" as="geometry" />
        </mxCell>
        <mxCell id="PvK_FAnKZPMPO2Lp3wNm-11" value="" style="edgeStyle=orthogonalEdgeStyle;rounded=0;orthogonalLoop=1;jettySize=auto;html=1;" edge="1" parent="1" source="PvK_FAnKZPMPO2Lp3wNm-8" target="PvK_FAnKZPMPO2Lp3wNm-10">
          <mxGeometry relative="1" as="geometry" />
        </mxCell>
        <mxCell id="PvK_FAnKZPMPO2Lp3wNm-15" value="" style="edgeStyle=orthogonalEdgeStyle;rounded=0;orthogonalLoop=1;jettySize=auto;html=1;" edge="1" parent="1" source="PvK_FAnKZPMPO2Lp3wNm-8" target="PvK_FAnKZPMPO2Lp3wNm-14">
          <mxGeometry relative="1" as="geometry" />
        </mxCell>
        <mxCell id="PvK_FAnKZPMPO2Lp3wNm-8" value="Do you want pickles" style="rhombus;whiteSpace=wrap;html=1;" vertex="1" parent="1">
          <mxGeometry x="365" y="310" width="120" height="80" as="geometry" />
        </mxCell>
        <mxCell id="PvK_FAnKZPMPO2Lp3wNm-13" value="" style="edgeStyle=orthogonalEdgeStyle;rounded=0;orthogonalLoop=1;jettySize=auto;html=1;" edge="1" parent="1" source="PvK_FAnKZPMPO2Lp3wNm-10" target="PvK_FAnKZPMPO2Lp3wNm-12">
          <mxGeometry relative="1" as="geometry" />
        </mxCell>
        <mxCell id="PvK_FAnKZPMPO2Lp3wNm-10" value="Yes" style="whiteSpace=wrap;html=1;" vertex="1" parent="1">
          <mxGeometry x="560" y="320" width="120" height="60" as="geometry" />
        </mxCell>
        <mxCell id="PvK_FAnKZPMPO2Lp3wNm-12" value="Ask for pickles" style="whiteSpace=wrap;html=1;" vertex="1" parent="1">
          <mxGeometry x="560" y="400" width="120" height="60" as="geometry" />
        </mxCell>
        <mxCell id="PvK_FAnKZPMPO2Lp3wNm-17" value="" style="edgeStyle=orthogonalEdgeStyle;rounded=0;orthogonalLoop=1;jettySize=auto;html=1;" edge="1" parent="1" source="PvK_FAnKZPMPO2Lp3wNm-14" target="PvK_FAnKZPMPO2Lp3wNm-16">
          <mxGeometry relative="1" as="geometry" />
        </mxCell>
        <mxCell id="PvK_FAnKZPMPO2Lp3wNm-14" value="NO" style="whiteSpace=wrap;html=1;" vertex="1" parent="1">
          <mxGeometry x="165" y="320" width="120" height="60" as="geometry" />
        </mxCell>
        <mxCell id="PvK_FAnKZPMPO2Lp3wNm-16" value="Ask for no pickles" style="whiteSpace=wrap;html=1;" vertex="1" parent="1">
          <mxGeometry x="165" y="400" width="120" height="60" as="geometry" />
        </mxCell>
        <mxCell id="PvK_FAnKZPMPO2Lp3wNm-22" style="edgeStyle=orthogonalEdgeStyle;rounded=0;orthogonalLoop=1;jettySize=auto;html=1;exitX=0.5;exitY=0;exitDx=0;exitDy=0;entryX=0.5;entryY=1;entryDx=0;entryDy=0;" edge="1" parent="1" source="PvK_FAnKZPMPO2Lp3wNm-18" target="PvK_FAnKZPMPO2Lp3wNm-16">
          <mxGeometry relative="1" as="geometry" />
        </mxCell>
        <mxCell id="PvK_FAnKZPMPO2Lp3wNm-23" style="edgeStyle=orthogonalEdgeStyle;rounded=0;orthogonalLoop=1;jettySize=auto;html=1;entryX=0.5;entryY=1;entryDx=0;entryDy=0;" edge="1" parent="1" target="PvK_FAnKZPMPO2Lp3wNm-12">
          <mxGeometry relative="1" as="geometry">
            <mxPoint x="430" y="450" as="sourcePoint" />
            <Array as="points">
              <mxPoint x="430" y="451" />
              <mxPoint x="496" y="451" />
              <mxPoint x="496" y="480" />
              <mxPoint x="620" y="480" />
            </Array>
          </mxGeometry>
        </mxCell>
        <mxCell id="PvK_FAnKZPMPO2Lp3wNm-28" value="Text" style="edgeLabel;html=1;align=center;verticalAlign=middle;resizable=0;points=[];" vertex="1" connectable="0" parent="PvK_FAnKZPMPO2Lp3wNm-23">
          <mxGeometry x="-0.9872" y="1" relative="1" as="geometry">
            <mxPoint as="offset" />
          </mxGeometry>
        </mxCell>
        <mxCell id="PvK_FAnKZPMPO2Lp3wNm-25" value="" style="edgeStyle=orthogonalEdgeStyle;rounded=0;orthogonalLoop=1;jettySize=auto;html=1;" edge="1" parent="1" source="PvK_FAnKZPMPO2Lp3wNm-18" target="PvK_FAnKZPMPO2Lp3wNm-24">
          <mxGeometry relative="1" as="geometry" />
        </mxCell>
        <mxCell id="PvK_FAnKZPMPO2Lp3wNm-27" value="" style="edgeStyle=orthogonalEdgeStyle;rounded=0;orthogonalLoop=1;jettySize=auto;html=1;" edge="1" parent="1" source="PvK_FAnKZPMPO2Lp3wNm-18" target="PvK_FAnKZPMPO2Lp3wNm-26">
          <mxGeometry relative="1" as="geometry" />
        </mxCell>
        <mxCell id="PvK_FAnKZPMPO2Lp3wNm-18" value="Do you want lettuce" style="rhombus;whiteSpace=wrap;html=1;" vertex="1" parent="1">
          <mxGeometry x="365" y="500" width="120" height="80" as="geometry" />
        </mxCell>
        <mxCell id="PvK_FAnKZPMPO2Lp3wNm-31" style="edgeStyle=orthogonalEdgeStyle;rounded=0;orthogonalLoop=1;jettySize=auto;html=1;exitX=0.5;exitY=1;exitDx=0;exitDy=0;entryX=0.5;entryY=0;entryDx=0;entryDy=0;" edge="1" parent="1" source="PvK_FAnKZPMPO2Lp3wNm-24" target="PvK_FAnKZPMPO2Lp3wNm-29">
          <mxGeometry relative="1" as="geometry" />
        </mxCell>
        <mxCell id="PvK_FAnKZPMPO2Lp3wNm-24" value="NO LETTUCE" style="whiteSpace=wrap;html=1;" vertex="1" parent="1">
          <mxGeometry x="165" y="510" width="120" height="60" as="geometry" />
        </mxCell>
        <mxCell id="PvK_FAnKZPMPO2Lp3wNm-32" style="edgeStyle=orthogonalEdgeStyle;rounded=0;orthogonalLoop=1;jettySize=auto;html=1;exitX=0.5;exitY=1;exitDx=0;exitDy=0;" edge="1" parent="1" source="PvK_FAnKZPMPO2Lp3wNm-26">
          <mxGeometry relative="1" as="geometry">
            <mxPoint x="430" y="640" as="targetPoint" />
          </mxGeometry>
        </mxCell>
        <mxCell id="PvK_FAnKZPMPO2Lp3wNm-26" value="Yes Lettuce" style="whiteSpace=wrap;html=1;" vertex="1" parent="1">
          <mxGeometry x="565" y="510" width="120" height="60" as="geometry" />
        </mxCell>
        <mxCell id="PvK_FAnKZPMPO2Lp3wNm-34" value="" style="edgeStyle=orthogonalEdgeStyle;rounded=0;orthogonalLoop=1;jettySize=auto;html=1;" edge="1" parent="1" source="PvK_FAnKZPMPO2Lp3wNm-29" target="PvK_FAnKZPMPO2Lp3wNm-33">
          <mxGeometry relative="1" as="geometry" />
        </mxCell>
        <mxCell id="PvK_FAnKZPMPO2Lp3wNm-36" value="" style="edgeStyle=orthogonalEdgeStyle;rounded=0;orthogonalLoop=1;jettySize=auto;html=1;" edge="1" parent="1" source="PvK_FAnKZPMPO2Lp3wNm-29" target="PvK_FAnKZPMPO2Lp3wNm-35">
          <mxGeometry relative="1" as="geometry" />
        </mxCell>
        <mxCell id="PvK_FAnKZPMPO2Lp3wNm-29" value="Do you want tomato&lt;div&gt;&lt;br&gt;&lt;/div&gt;" style="rhombus;whiteSpace=wrap;html=1;" vertex="1" parent="1">
          <mxGeometry x="365" y="640" width="120" height="80" as="geometry" />
        </mxCell>
        <mxCell id="PvK_FAnKZPMPO2Lp3wNm-39" style="edgeStyle=orthogonalEdgeStyle;rounded=0;orthogonalLoop=1;jettySize=auto;html=1;exitX=0.5;exitY=1;exitDx=0;exitDy=0;entryX=0.5;entryY=0;entryDx=0;entryDy=0;" edge="1" parent="1" source="PvK_FAnKZPMPO2Lp3wNm-33" target="PvK_FAnKZPMPO2Lp3wNm-37">
          <mxGeometry relative="1" as="geometry" />
        </mxCell>
        <mxCell id="PvK_FAnKZPMPO2Lp3wNm-33" value="NO" style="whiteSpace=wrap;html=1;" vertex="1" parent="1">
          <mxGeometry x="165" y="650" width="120" height="60" as="geometry" />
        </mxCell>
        <mxCell id="PvK_FAnKZPMPO2Lp3wNm-40" style="edgeStyle=orthogonalEdgeStyle;rounded=0;orthogonalLoop=1;jettySize=auto;html=1;exitX=0.5;exitY=1;exitDx=0;exitDy=0;" edge="1" parent="1" source="PvK_FAnKZPMPO2Lp3wNm-35">
          <mxGeometry relative="1" as="geometry">
            <mxPoint x="430" y="800" as="targetPoint" />
          </mxGeometry>
        </mxCell>
        <mxCell id="PvK_FAnKZPMPO2Lp3wNm-35" value="Much Yes" style="whiteSpace=wrap;html=1;" vertex="1" parent="1">
          <mxGeometry x="565" y="650" width="120" height="60" as="geometry" />
        </mxCell>
        <mxCell id="PvK_FAnKZPMPO2Lp3wNm-42" value="" style="edgeStyle=orthogonalEdgeStyle;rounded=0;orthogonalLoop=1;jettySize=auto;html=1;" edge="1" parent="1" source="PvK_FAnKZPMPO2Lp3wNm-37" target="PvK_FAnKZPMPO2Lp3wNm-41">
          <mxGeometry relative="1" as="geometry" />
        </mxCell>
        <mxCell id="PvK_FAnKZPMPO2Lp3wNm-44" value="" style="edgeStyle=orthogonalEdgeStyle;rounded=0;orthogonalLoop=1;jettySize=auto;html=1;" edge="1" parent="1" source="PvK_FAnKZPMPO2Lp3wNm-37" target="PvK_FAnKZPMPO2Lp3wNm-43">
          <mxGeometry relative="1" as="geometry" />
        </mxCell>
        <mxCell id="PvK_FAnKZPMPO2Lp3wNm-46" value="" style="edgeStyle=orthogonalEdgeStyle;rounded=0;orthogonalLoop=1;jettySize=auto;html=1;" edge="1" parent="1" source="PvK_FAnKZPMPO2Lp3wNm-37" target="PvK_FAnKZPMPO2Lp3wNm-45">
          <mxGeometry relative="1" as="geometry" />
        </mxCell>
        <mxCell id="PvK_FAnKZPMPO2Lp3wNm-37" value="&lt;div&gt;Pay For CHeeseburger&lt;/div&gt;" style="rhombus;whiteSpace=wrap;html=1;" vertex="1" parent="1">
          <mxGeometry x="365" y="800" width="120" height="80" as="geometry" />
        </mxCell>
        <mxCell id="PvK_FAnKZPMPO2Lp3wNm-41" value="Yes" style="whiteSpace=wrap;html=1;" vertex="1" parent="1">
          <mxGeometry x="165" y="810" width="120" height="60" as="geometry" />
        </mxCell>
        <mxCell id="PvK_FAnKZPMPO2Lp3wNm-43" value="NO" style="whiteSpace=wrap;html=1;" vertex="1" parent="1">
          <mxGeometry x="565" y="810" width="120" height="60" as="geometry" />
        </mxCell>
        <mxCell id="PvK_FAnKZPMPO2Lp3wNm-45" value="END&lt;div&gt;&lt;br&gt;&lt;/div&gt;" style="whiteSpace=wrap;html=1;" vertex="1" parent="1">
          <mxGeometry x="365" y="970" width="120" height="60" as="geometry" />
        </mxCell>
        <mxCell id="PvK_FAnKZPMPO2Lp3wNm-47" style="edgeStyle=orthogonalEdgeStyle;rounded=0;orthogonalLoop=1;jettySize=auto;html=1;exitX=0;exitY=0.75;exitDx=0;exitDy=0;entryX=0.5;entryY=1;entryDx=0;entryDy=0;" edge="1" parent="1" source="PvK_FAnKZPMPO2Lp3wNm-45" target="PvK_FAnKZPMPO2Lp3wNm-45">
          <mxGeometry relative="1" as="geometry" />
        </mxCell>
      </root>
    </mxGraphModel>
  </diagram>
</mxfile>
